<?xml version="1.0" standalone="no"?>
<!DOCTYPE svg PUBLIC "-//W3C//DTD SVG 20010904//EN"
 "http://www.w3.org/TR/2001/REC-SVG-20010904/DTD/svg10.dtd">
<svg version="1.0" xmlns="http://www.w3.org/2000/svg"
 width="386.000000pt" height="340.000000pt" viewBox="0 0 386.000000 340.000000"
 preserveAspectRatio="xMidYMid meet">

<g transform="translate(0.000000,340.000000) scale(0.100000,-0.100000)"
fill="#000000" stroke="none">
<path d="M2852 3357 c-73 -27 -129 -96 -147 -180 -4 -22 -10 -27 -23 -22 -42
16 -111 17 -164 1 -81 -23 -141 -73 -179 -151 -29 -60 -31 -70 -27 -145 4 -67
9 -87 36 -130 18 -28 32 -64 32 -80 0 -88 49 -210 116 -289 19 -21 34 -41 34
-44 0 -2 -32 -7 -71 -11 -40 -3 -92 -12 -117 -18 l-45 -11 -37 44 c-35 40 -40
42 -64 31 -14 -6 -28 -23 -32 -37 -3 -14 -10 -25 -15 -25 -22 0 5 -96 31 -110
16 -8 29 -6 60 12 22 13 42 31 45 40 8 22 122 48 215 48 67 0 75 -2 132 -41
74 -50 182 -101 263 -124 33 -9 65 -18 72 -20 8 -3 5 -25 -12 -76 -23 -72 -45
-98 -87 -99 -23 0 -40 -34 -32 -65 5 -21 3 -25 -15 -25 -32 0 -115 -45 -185
-100 -113 -90 -215 -218 -313 -395 -31 -55 -89 -158 -129 -230 -77 -137 -98
-200 -71 -211 25 -9 50 11 77 62 14 27 28 53 33 59 170 232 181 245 196 231
29 -25 91 -39 145 -32 223 29 388 183 422 395 12 79 5 131 -23 163 -13 15 -13
18 5 27 37 20 37 46 -1 128 -11 24 -5 64 17 117 l14 34 134 -5 c144 -6 252 8
364 48 33 11 90 24 127 29 123 14 198 89 205 205 2 35 -1 80 -8 100 -16 48
-63 101 -113 126 -38 20 -39 21 -30 57 24 104 -1 210 -66 284 -30 34 -31 37
-21 87 19 99 -17 200 -95 269 -56 49 -119 72 -196 72 -46 0 -71 -7 -124 -35
l-67 -35 -39 34 c-62 53 -152 70 -227 43z m167 -37 c21 -10 51 -34 66 -51 22
-27 30 -31 43 -21 78 55 109 67 179 70 58 3 81 0 116 -17 117 -57 179 -184
148 -306 -12 -46 -11 -47 23 -85 19 -21 42 -53 52 -71 25 -50 30 -139 9 -201
-10 -30 -13 -54 -7 -56 42 -14 101 -53 126 -85 23 -29 31 -50 34 -96 5 -72 -8
-116 -50 -160 -37 -40 -84 -61 -134 -61 -20 0 -75 -13 -123 -29 -113 -38 -228
-54 -349 -49 -122 5 -131 9 -98 53 30 39 31 45 11 45 -8 0 -27 -18 -41 -40
-25 -38 -29 -40 -63 -34 -64 12 -193 63 -265 106 -39 23 -104 74 -143 114 -91
90 -131 169 -140 275 -5 59 -12 82 -34 112 -36 49 -54 133 -41 192 33 157 195
252 340 201 23 -8 43 -12 45 -8 3 4 7 28 11 54 19 130 169 208 285 148z m-789
-1013 c0 -8 9 -22 19 -31 21 -19 18 -46 -4 -46 -7 0 -18 -7 -25 -15 -7 -9 -18
-14 -24 -12 -14 5 -18 75 -5 99 11 21 39 24 39 5z m733 -404 c3 -5 8 -22 12
-40 6 -32 6 -32 -27 -29 -39 3 -78 25 -78 43 0 7 9 13 19 13 11 0 23 5 26 10
7 12 42 13 48 3z m-73 -128 c86 -44 77 -190 -20 -334 -69 -104 -218 -178 -340
-169 -33 2 -65 9 -72 16 -12 12 3 32 123 160 70 74 83 104 52 116 -13 5 -43
-20 -121 -101 -56 -59 -111 -124 -122 -144 -18 -35 -58 -65 -47 -36 10 25 75
123 91 136 9 7 16 19 16 26 0 43 198 245 304 311 57 36 94 41 136 19z"/>
<path d="M2710 3042 c0 -15 68 -74 74 -64 8 13 -41 72 -60 72 -8 0 -14 -4 -14
-8z"/>
<path d="M2677 2993 c-9 -9 22 -43 40 -43 18 0 16 14 -5 33 -21 19 -26 20 -35
10z"/>
<path d="M2818 2944 c-16 -8 -28 -21 -28 -29 0 -19 10 -18 34 0 11 8 34 15 52
15 38 0 74 -38 74 -77 0 -15 5 -23 13 -20 7 2 11 19 10 38 -3 70 -88 110 -155
73z"/>
<path d="M3106 2829 c-34 -27 -20 -50 15 -25 51 35 113 8 126 -54 7 -39 23
-39 23 1 0 41 -15 66 -50 84 -41 21 -83 19 -114 -6z"/>
<path d="M2456 2833 c-11 -11 -6 -87 9 -146 23 -89 60 -152 125 -214 34 -32
63 -69 67 -83 9 -37 22 -50 53 -50 20 0 34 10 54 39 23 33 26 44 20 82 -12 76
-36 87 -104 44 -22 -14 -43 -25 -48 -25 -11 0 -74 68 -96 103 -30 49 -56 138
-56 193 0 50 -9 72 -24 57z m300 -373 c3 -43 -35 -96 -61 -86 -11 4 -14 12
-10 25 3 10 -1 24 -10 31 -23 19 -18 35 18 52 47 23 61 18 63 -22z"/>
<path d="M2585 2783 c14 -61 57 -100 114 -106 37 -4 45 -15 55 -70 8 -46 55
-101 110 -129 44 -22 168 -28 216 -10 20 8 34 5 67 -15 41 -24 88 -28 88 -8 0
6 -11 11 -25 13 -59 7 -90 42 -90 103 0 33 47 89 74 89 9 0 16 7 16 15 0 28
-42 15 -84 -26 l-41 -42 -59 12 c-79 16 -124 41 -169 90 -32 35 -35 44 -27 66
13 35 13 45 -3 45 -8 0 -19 -18 -26 -40 -13 -43 -49 -70 -95 -70 -33 0 -83 44
-91 80 -4 17 -13 30 -22 30 -12 0 -14 -7 -8 -27z m260 -112 c56 -51 106 -76
183 -91 61 -12 62 -13 62 -46 0 -30 -3 -34 -41 -44 -59 -16 -85 -10 -81 18 4
29 -12 49 -56 68 -40 16 -78 18 -87 4 -12 -19 -26 -10 -41 25 -17 42 -18 77
-2 93 16 16 15 17 63 -27z m59 -126 c36 -15 48 -41 22 -51 -15 -6 -96 31 -96
45 0 24 24 27 74 6z"/>
<path d="M3320 2751 c0 -11 48 -24 60 -16 21 13 8 25 -25 25 -19 0 -35 -4 -35
-9z"/>
<path d="M3300 2711 c0 -14 49 -43 61 -35 14 9 -19 44 -43 44 -10 0 -18 -4
-18 -9z"/>
<path d="M2994 2403 c-46 -22 -71 -106 -40 -132 9 -7 33 -9 68 -5 34 4 63 2
76 -5 35 -19 143 -29 210 -20 66 10 192 61 192 78 0 16 -12 14 -72 -14 -86
-39 -156 -50 -240 -36 -40 7 -77 16 -83 21 -6 5 -10 26 -9 47 3 74 -34 98
-102 66z m67 -23 c1 -5 1 -21 1 -35 0 -45 -2 -47 -23 -42 -12 3 -30 1 -40 -6
-31 -19 -43 4 -22 41 23 40 81 69 84 42z"/>
<path d="M2044 1802 c-163 -92 -309 -259 -444 -507 -23 -44 -74 -135 -112
-202 -64 -114 -85 -179 -65 -200 15 -14 53 17 77 63 14 27 29 53 33 59 8 10
83 112 150 202 27 37 33 41 46 29 86 -75 325 -15 446 112 60 63 106 160 121
252 15 88 7 128 -36 180 -26 32 -32 34 -96 37 -61 3 -75 0 -120 -25z m145 -26
c67 -35 80 -122 35 -235 -53 -133 -144 -218 -278 -256 -64 -19 -168 -17 -188
3 -12 12 3 32 123 160 70 74 83 104 52 116 -13 5 -41 -17 -111 -91 -51 -54
-110 -123 -130 -153 -24 -36 -37 -49 -39 -39 -2 9 15 44 39 79 24 34 58 88 77
119 43 70 202 227 279 274 63 39 99 44 141 23z"/>
<path d="M577 1658 c-184 -185 -357 -395 -487 -593 -45 -68 -52 -105 -19 -105
22 0 47 23 119 111 24 30 83 91 130 137 117 114 223 185 157 106 -27 -33 -113
-163 -139 -211 -22 -41 -23 -106 -3 -123 21 -18 120 -7 179 19 l47 20 9 -23
c14 -38 57 -23 125 45 32 32 62 59 66 59 4 0 16 -16 28 -35 21 -37 81 -71 107
-61 20 8 17 24 -6 31 -23 7 -56 51 -65 87 -6 22 3 36 71 102 61 60 81 75 98
70 33 -9 114 -103 142 -164 23 -48 25 -64 20 -126 -3 -39 -3 -74 0 -77 8 -7
57 11 65 24 3 6 7 32 8 59 1 52 13 89 67 220 20 47 51 122 70 167 71 170 91
267 58 280 -9 3 -25 1 -35 -5 -10 -7 -27 -12 -37 -12 -25 0 -90 -36 -137 -77
-161 -138 -274 -220 -317 -232 -53 -15 -90 -51 -118 -116 -19 -45 -44 -65 -79
-65 -11 0 -35 -13 -53 -28 -82 -69 -171 -112 -234 -112 -29 0 -34 4 -34 23 0
13 27 63 60 111 33 49 60 91 60 94 0 3 15 23 33 46 18 23 39 55 46 73 15 36 7
73 -15 73 -17 0 -147 -86 -199 -131 -19 -17 -35 -28 -35 -25 0 23 72 107 234
271 102 105 185 194 183 200 -2 5 -14 11 -26 13 -17 3 -50 -25 -144 -120z
m783 -103 c0 -16 -55 -165 -100 -270 -10 -22 -25 -61 -34 -87 -10 -27 -21 -48
-26 -48 -4 0 -20 20 -34 44 -14 24 -50 66 -80 94 l-56 50 33 29 c19 15 69 53
111 83 43 30 97 69 120 87 45 35 66 41 66 18z"/>
<path d="M3272 1261 c-49 -54 -96 -93 -149 -125 -79 -47 -177 -85 -189 -73 -8
7 53 89 115 156 43 46 48 60 29 79 -21 21 -42 13 -100 -44 -70 -68 -128 -158
-135 -213 -5 -37 -3 -40 21 -47 50 -12 131 2 201 34 37 18 69 31 71 30 1 -2
-25 -60 -59 -130 l-61 -127 -60 -31 c-107 -57 -201 -127 -275 -207 -41 -43
-81 -89 -89 -103 -9 -14 -24 -34 -33 -45 -33 -37 -115 -190 -128 -237 -11 -37
-11 -57 -1 -97 13 -57 28 -66 87 -55 51 9 74 24 150 102 92 95 93 96 165 212
72 116 88 143 168 299 l55 106 120 62 c119 61 261 115 342 128 46 7 68 26 59
50 -4 11 -14 13 -38 9 -88 -17 -185 -48 -302 -98 -71 -31 -131 -55 -132 -53
-4 3 58 137 77 167 5 8 13 25 18 37 10 23 59 88 121 163 20 25 42 55 49 68 14
26 6 62 -13 62 -7 0 -44 -35 -84 -79z m-302 -554 c0 -19 -134 -262 -198 -357
-119 -179 -236 -284 -278 -250 -32 27 -10 109 63 235 61 103 218 263 328 334
44 28 81 51 83 51 1 0 2 -6 2 -13z"/>
</g>
</svg>
